<svg width="157" height="43" viewBox="0 0 157 43" fill="none" xmlns="http://www.w3.org/2000/svg">
<path d="M123.902 12.6662L129.638 8.41638H110.434V33.874H129.638V29.6241H115.921V23.1243H127.643V18.8744H115.921V12.6662H123.902Z" fill="white"/>
<path d="M95.927 18.3327H89.2763V12.6662H99.9176L105.654 8.41638H83.7893V33.874H95.2203C101.622 33.874 105.321 30.9574 105.321 25.8742C105.321 20.9993 101.996 18.3327 95.927 18.3327ZM95.0125 29.6241H89.2763V22.5826H95.0125C98.5043 22.5826 100.125 23.7492 100.125 26.1242C100.125 28.4992 98.3795 29.6241 95.0125 29.6241Z" fill="white"/>
<path d="M145.184 8.41638H134.751V33.874H140.238V26.6657H145.226C151.877 26.6657 156.034 23.1659 156.034 17.5411C156.034 11.9163 151.877 8.41638 145.184 8.41638ZM145.06 22.4159H140.197V12.6662H145.06C148.593 12.6662 150.505 14.4162 150.505 17.5411C150.505 20.666 148.593 22.4159 145.06 22.4159Z" fill="white"/>
<path d="M74.3951 28.374C72.9404 29.1657 71.3192 29.5824 69.6564 29.5824C64.7099 29.5824 61.135 26.0409 61.135 21.166C61.135 16.2912 64.7099 12.7496 69.6564 12.7496C71.4437 12.708 73.1896 13.2913 74.6446 14.3329L78.5935 11.4163L78.344 11.1663C76.0579 9.12472 72.9818 8.0831 69.4902 8.0831C65.7075 8.0831 62.2574 9.37472 59.7634 11.708C57.2692 14.1246 55.8559 17.4995 55.9393 20.9994C55.8976 24.5409 57.2692 27.9576 59.7634 30.4573C62.3822 32.9158 65.8737 34.2905 69.4486 34.2074C73.3975 34.2074 76.8476 32.8323 79.1754 30.3324L75.6422 27.7075L74.3951 28.374Z" fill="white"/>
<path d="M38.7716 8.24976C39.7692 9.5414 40.6006 10.958 41.3073 12.458L22.1031 26.6658L14.0391 21.5827V15.4996L22.0616 20.541L38.7716 8.24976Z" fill="white"/>
<path d="M5.85045 21.166C5.85045 20.8743 5.85045 20.6243 5.89202 20.3327L1.02863 20.0827C1.02863 20.416 0.987061 20.791 0.987061 21.1243C0.987061 26.9575 3.35641 32.249 7.1806 36.0822L10.6307 32.6239C7.67941 29.7073 5.85045 25.6659 5.85045 21.166Z" fill="white"/>
<path d="M22.0618 4.91651C22.3528 4.91651 22.6022 4.91651 22.8932 4.95818L23.1426 0.0833214C22.81 0.0833214 22.4359 0.0416565 22.1034 0.0416565C16.2839 0.0416565 11.0049 2.41658 7.18066 6.2498L10.6308 9.70803C13.5405 6.74979 17.6141 4.91651 22.0618 4.91651Z" fill="white"/>
<path d="M22.0617 37.4155C21.7707 37.4155 21.5213 37.4155 21.2304 37.3738L20.981 42.2488C21.3135 42.2488 21.6876 42.2902 22.0201 42.2902C27.8395 42.2902 33.1186 39.9155 36.9427 36.0822L33.4926 32.624C30.583 35.6238 26.551 37.4155 22.0617 37.4155Z" fill="white"/>
<path d="M31.2066 7.74978L35.3217 4.70819C31.7054 1.79161 27.0914 0 22.0618 0V4.87485C25.4703 4.91652 28.6296 5.95814 31.2066 7.74978Z" fill="white"/>
<path d="M43.1782 21.166C43.1782 19.8744 43.0535 18.6244 42.8456 17.3745L38.3148 20.7493C38.3148 20.8744 38.3148 21.041 38.3148 21.166C38.3148 25.9575 36.2363 30.2492 32.9526 33.2073L36.2363 36.8322C40.4762 32.9989 43.1782 27.3743 43.1782 21.166Z" fill="white"/>
<path d="M22.0617 37.4155C17.2815 37.4155 13 35.3323 10.0488 32.0406L6.43237 35.3323C10.2981 39.6237 15.8682 42.2903 22.0617 42.2903V37.4155Z" fill="white"/>
<path d="M11.2127 9.12476L7.92884 5.49985C3.64738 9.37473 0.987061 14.9579 0.987061 21.1661H5.85045C5.85045 16.4162 7.92884 12.083 11.2127 9.12476Z" fill="white"/>
</svg>
